<?xml version="1.0" encoding="utf-8"?>
<!-- Generator: Adobe Illustrator 21.0.0, SVG Export Plug-In . SVG Version: 6.00 Build 0)  -->
<svg version="1.1" id="Ebene_1" xmlns="http://www.w3.org/2000/svg" xmlns:xlink="http://www.w3.org/1999/xlink" x="0px" y="0px"
	 viewBox="0 0 221 21" style="enable-background:new 0 0 221 21;" xml:space="preserve">
<style type="text/css">
	.st0{fill:#FFFFFF;}
</style>
<g>
	<path class="st0" d="M11.3,12.9c-0.5,1.5-0.9,2.7-1.3,4h0c-0.4-1.3-0.8-2.7-1.2-3.8L4.8,1.4H4.3c0,0,0,0,0,0
		c-1.3,0-2.7,0.1-3.8,0.2V3c0.8,0.1,1.7,0.2,2.3,0.3l5.9,16.3h2.8L18,1.4h-2.5L11.3,12.9z"/>
	<path class="st0" d="M24,6c-3.8,0-6,3-6,7c0,4.7,2.2,6.9,6.3,6.9c1.7,0,3.2-0.3,4.5-0.8l-0.2-2c-1.1,0.5-2.5,0.8-3.9,0.8
		c-2.9,0-4.3-1.5-4.2-5.1h8.7c0.1-0.5,0.1-0.8,0.1-1.2C29.4,8.5,27.8,6,24,6z M20.7,11c0.3-2,1.5-3.3,3.3-3.3c1.9,0,3,1.3,3,3.3
		H20.7z"/>
	<path class="st0" d="M35.7,9.4L35.7,9.4c0.2-1.1,0.2-2.3,0.2-3.2c-1.5-0.1-3.3,0-4.7,0.2v1.4C32,7.9,33,8,33.6,8.1v11.5H36v-5.4
		c0-4.3,1.3-6.4,4.2-5.9L40.3,6C37.6,5.7,36.3,7.5,35.7,9.4z"/>
	<path class="st0" d="M59.1,5.9c-2.6,0-4,1.8-4.6,3c-0.1-1.1-0.9-3-3.7-3c-2.2,0-3.9,1.2-4.7,3.1l-0.1,0c0.2-0.8,0.2-2,0.2-2.8
		c-1.5-0.1-3.3,0-4.7,0.2v1.4C42.5,7.9,43.4,8,44,8.1v11.5h2.4v-6.4c0-3.1,1.7-5.2,3.7-5.2c1.8,0,2.2,1.3,2.2,3v8.6h2.4v-6.4
		c0-3.2,1.8-5.2,3.7-5.2c1.7,0,2.2,1.2,2.2,3v8.6h2.4v-9.3C63.1,7.3,61.6,5.9,59.1,5.9z"/>
	<path class="st0" d="M72.3,6c-4,0-6.5,3.1-6.5,7c0,4.7,2.4,6.8,6,6.8c4,0,6.5-3.1,6.5-7.2C78.4,7.8,75.7,6,72.3,6z M72.1,17.8
		c-2.4,0-3.8-1.8-3.8-5c0-3.3,1.8-4.8,3.8-4.8c2.5,0,3.7,1.8,3.7,4.8C75.8,16.2,74.1,17.8,72.1,17.8z"/>
	<path class="st0" d="M89.3,5.9c-2.3,0-3.9,1.2-4.7,3.1l-0.1,0c0.2-0.8,0.2-2,0.2-2.8c-1.5-0.1-3.3,0-4.7,0.2v1.4
		c0.8,0.1,1.7,0.2,2.3,0.3v11.5h2.4v-6.4c0-3,1.6-5.2,3.8-5.2c1.8,0,2.3,1.1,2.3,3v8.6h2.4v-9.4C93.3,7.8,92.4,5.9,89.3,5.9z"/>
	<path class="st0" d="M128.1,1.3c-1.6,0-3.1,0.1-4.5,0.1v1.5c0,1.2,0.1,1.6,0.2,2.8h1.4c0.1-0.8,0.2-1.7,0.3-2.4h0.6
		c0.5,0,1.1,0,1.7,0c2.9,0,4.2,1.3,4.2,3.5c0,1.6-1,2.7-2.4,3.3c-1.1,0.5-2.1,0.5-2.6,0.5c-11.2,1.1-21.4-2.4-24.6-3.5
		C102.2,7.1,102,7,101.8,7c-0.4-0.1-0.8-0.3-1.2-0.5V1.2l-2.4,0.7v3.7c-0.7-0.3-1.4-0.5-2-0.7l-0.6,1.3c0.7,0.4,2.2,1.3,2.6,1.6v8
		c0,2.9,0.8,4,3.6,4c0.9,0,1.8-0.1,2.6-0.3v-2c-0.5,0.1-1.2,0.2-1.8,0.2c-1.5,0-1.9-0.6-1.9-2.8V8.8c0.2,0.1,0.3,0.1,0.5,0.2
		c0.2,0.1,0.4,0.1,0.6,0.2c2.8,1.1,10.4,3.9,20.4,3.9c0.5,0,1.1,0,1.6,0v6.5h2.5V13c0.7,0,1.5-0.1,2.2-0.2c4-0.5,6.3-2.8,6.3-6.2
		C134.6,3.4,132.3,1.3,128.1,1.3z"/>
	<path class="st0" d="M146.5,10.4c0-2.7-1.1-4.5-5-4.5c-1.8,0-3.4,0.4-4.7,1l0.2,2.1c1.2-0.7,2.8-1.1,4-1.1c2.2,0,2.9,1,2.9,2.9v1
		c-5.1,0-8,1.9-8,4.8c0,2.1,1.5,3.3,3.7,3.3c2.2,0,3.9-1.3,4.5-2.9h0.1c-0.1,0.8-0.1,1.7-0.1,2.7c1.4,0.1,3.3,0,4.6-0.2V18
		c-0.8-0.1-1.7-0.2-2.3-0.3V10.4z M144.1,13.6c0,2.1-1.5,4.2-3.6,4.2c-1.2,0-2-0.7-2-1.9c0-1.2,1-2.6,5.7-2.6V13.6z"/>
	<path class="st0" d="M154.4,9.4L154.4,9.4c0.2-1.1,0.2-2.3,0.2-3.2c-1.5-0.1-3.3,0-4.7,0.2v1.4c0.8,0.1,1.7,0.2,2.3,0.3v11.5h2.4
		v-5.4c0-4.3,1.3-6.4,4.2-5.9L159,6C156.3,5.7,155,7.5,154.4,9.4z"/>
	<path class="st0" d="M165.3,1.2l-2.4,0.7v4.3h-2.7v1.9h2.7v7.7c0,2.9,0.8,4,3.6,4c0.9,0,1.8-0.1,2.6-0.3v-2
		c-0.5,0.1-1.2,0.2-1.8,0.2c-1.5,0-1.9-0.6-1.9-2.8V8.1h3.7V6.2h-3.7L165.3,1.2L165.3,1.2z"/>
	<path class="st0" d="M179.9,5.9c-2.3,0-3.9,1.2-4.7,3.1l-0.1,0c0.2-0.8,0.2-2,0.2-2.8c-1.5-0.1-3.3,0-4.7,0.2v1.4
		c0.8,0.1,1.7,0.2,2.3,0.3v11.5h2.4v-6.4c0-3,1.6-5.2,3.8-5.2c1.8,0,2.3,1.1,2.3,3v8.6h2.4v-9.4C183.9,7.8,182.9,5.9,179.9,5.9z"/>
	<path class="st0" d="M193.2,6c-3.8,0-6,3-6,7c0,4.7,2.2,6.9,6.3,6.9c1.7,0,3.2-0.3,4.5-0.8l-0.2-2c-1.1,0.5-2.5,0.8-3.9,0.8
		c-2.9,0-4.3-1.5-4.2-5.1h8.7c0.1-0.5,0.1-0.8,0.1-1.2C198.6,8.5,197,6,193.2,6z M189.9,11c0.3-2,1.5-3.3,3.3-3.3c1.9,0,3,1.3,3,3.3
		H189.9z"/>
	<path class="st0" d="M204.9,9.4L204.9,9.4c0.2-1.1,0.2-2.3,0.2-3.2c-1.5-0.1-3.3,0-4.7,0.2v1.4c0.8,0.1,1.7,0.2,2.3,0.3v11.5h2.4
		v-5.4c0-4.3,1.3-6.4,4.2-5.9l0.1-2.4C206.9,5.7,205.5,7.5,204.9,9.4z"/>
	<path class="st0" d="M213.9,9.7c0-1.2,0.9-1.9,2.7-1.9c0.9,0,1.9,0.2,2.7,0.4l0.1-2c-0.8-0.2-1.7-0.3-2.6-0.3c-3.5,0-5.4,1.8-5.4,4
		c0,4.7,6.2,2.9,6.2,5.9c0,1.2-1.2,2-3,2c-1,0-2.1-0.2-2.9-0.5l-0.1,2.2c0.8,0.2,1.8,0.2,2.8,0.2c3.6,0,5.7-1.8,5.7-4.3
		C220.2,11.1,213.9,12.7,213.9,9.7z"/>
</g>
</svg>
