<?xml version="1.0" encoding="utf-8"?>
<!-- Generator: Adobe Illustrator 16.0.0, SVG Export Plug-In . SVG Version: 6.00 Build 0)  -->
<!DOCTYPE svg PUBLIC "-//W3C//DTD SVG 1.1//EN" "http://www.w3.org/Graphics/SVG/1.1/DTD/svg11.dtd">
<svg version="1.1" id="Ebene_1" xmlns="http://www.w3.org/2000/svg" xmlns:xlink="http://www.w3.org/1999/xlink" x="0px" y="0px"
	 width="221px" height="21px" viewBox="0 0 221 21" enable-background="new 0 0 221 21" xml:space="preserve">
<g>
	<path fill="#3C5896" d="M11.339,12.896c-0.539,1.451-0.915,2.662-1.265,3.952h-0.027c-0.377-1.343-0.835-2.715-1.184-3.766
		L4.8,1.406H4.267C4.254,1.4,4.242,1.39,4.231,1.39C2.936,1.377,1.499,1.473,0.402,1.605V3.03c0.778,0.054,1.69,0.162,2.334,0.269
		l5.857,16.268h2.771l6.674-18.16h-2.53L11.339,12.896z"/>
	<path fill="#3C5896" d="M24.032,5.952c-3.794,0-5.974,2.987-5.974,6.996c0,4.709,2.207,6.862,6.324,6.862
		c1.667,0,3.228-0.296,4.52-0.835l-0.215-1.964c-1.077,0.511-2.53,0.833-3.902,0.833c-2.852,0-4.331-1.533-4.225-5.112h8.746
		c0.054-0.456,0.081-0.833,0.081-1.156C29.386,8.508,27.798,5.952,24.032,5.952z M20.669,11.012
		c0.269-1.965,1.507-3.284,3.254-3.284c1.884,0,3.041,1.319,2.987,3.284H20.669z"/>
	<path fill="#3C5896" d="M35.708,9.369h-0.054c0.215-1.104,0.295-2.341,0.295-3.175c-1.479-0.079-3.336,0.026-4.681,0.19V7.81
		c0.78,0.052,1.695,0.161,2.34,0.269v11.488h2.422v-5.38c0-4.279,1.344-6.351,4.17-5.865l0.108-2.37
		C37.645,5.656,36.272,7.514,35.708,9.369z"/>
	<path fill="#3C5896" d="M59.111,5.926c-2.583,0-4.036,1.775-4.574,3.04c-0.107-1.077-0.86-3.04-3.686-3.04
		c-2.152,0-3.874,1.21-4.655,3.095l-0.054-0.028c0.162-0.805,0.215-2.017,0.215-2.798c-1.479-0.079-3.336,0.026-4.681,0.19V7.81
		c0.779,0.052,1.694,0.161,2.341,0.269v11.488h2.422V13.19c0-3.066,1.695-5.247,3.739-5.247c1.829,0,2.179,1.346,2.179,3.013v8.609
		h2.396V13.19c0-3.23,1.83-5.247,3.739-5.247c1.749,0,2.18,1.183,2.18,3.041v8.582h2.421v-9.255
		C63.093,7.298,61.641,5.926,59.111,5.926z"/>
	<path fill="#3C5896" d="M72.33,5.952c-4.035,0-6.511,3.122-6.511,7.049c0,4.71,2.368,6.809,5.999,6.809
		c3.957,0,6.539-3.121,6.539-7.157C78.357,7.836,75.747,5.952,72.33,5.952z M72.115,17.766c-2.449,0-3.767-1.777-3.767-5.006
		c0-3.309,1.83-4.79,3.767-4.79c2.475,0,3.712,1.776,3.712,4.817C75.827,16.204,74.106,17.766,72.115,17.766z"/>
	<path fill="#3C5896" d="M89.307,5.926c-2.287,0-3.928,1.237-4.708,3.095l-0.054-0.028c0.162-0.779,0.216-2.017,0.216-2.798
		c-1.48-0.079-3.337,0.026-4.682,0.19V7.81c0.781,0.052,1.695,0.161,2.341,0.269v11.488h2.422v-6.432
		c0-2.958,1.587-5.191,3.793-5.191c1.776,0,2.287,1.103,2.287,2.985v8.637h2.422v-9.363C93.343,7.836,92.374,5.926,89.307,5.926z"/>
	<path fill="#3C5896" d="M128.142,1.298c-1.642,0-3.12,0.054-4.468,0.108v1.535c-0.042,1.179,0.059,1.572,0.207,2.798h1.424
		c0.052-0.771,0.169-1.726,0.276-2.37h0.569c0.513-0.026,1.051-0.026,1.722-0.026c2.854,0,4.171,1.264,4.171,3.523
		c0,1.618-0.965,2.728-2.428,3.323c-1.136,0.462-2.092,0.493-2.615,0.544c-11.188,1.144-21.412-2.358-24.58-3.547
		c-0.245-0.091-0.454-0.171-0.626-0.231c-0.352-0.128-0.77-0.289-1.215-0.462V1.189l-2.422,0.673v3.683
		c-0.712-0.289-1.417-0.546-2.024-0.745l-0.601,1.293c0.675,0.371,2.151,1.317,2.625,1.642v8.038c0,2.879,0.835,4.011,3.58,4.011
		c0.861,0,1.83-0.108,2.583-0.27V17.47c-0.538,0.133-1.21,0.241-1.829,0.241c-1.507,0-1.911-0.593-1.911-2.799V8.799
		c0.169,0.064,0.333,0.125,0.484,0.18c0.165,0.06,0.365,0.134,0.601,0.222c2.819,1.059,10.375,3.86,20.421,3.86
		c0.521,0,1.054,0.021,1.589,0v6.505h2.477v-6.574c0.746-0.037,1.46-0.088,2.186-0.185c3.992-0.534,6.29-2.834,6.29-6.183
		C134.626,3.396,132.312,1.298,128.142,1.298z"/>
	<path fill="#3C5896" d="M146.515,10.393c0-2.666-1.104-4.467-4.952-4.467c-1.776,0-3.391,0.43-4.681,0.968l0.242,2.072
		c1.156-0.7,2.771-1.104,4.034-1.104c2.207,0,2.933,0.996,2.933,2.853v0.995c-5.058,0-8.044,1.858-8.044,4.791
		c0,2.125,1.506,3.31,3.712,3.31c2.207,0,3.903-1.265,4.548-2.906h0.055c-0.135,0.753-0.135,1.722-0.135,2.663
		c1.427,0.082,3.281-0.025,4.627-0.188v-1.427c-0.78-0.054-1.694-0.16-2.339-0.27V10.393z M144.091,13.648
		c0,2.098-1.451,4.25-3.631,4.25c-1.238,0-2.046-0.726-2.046-1.857c0-1.21,1.023-2.636,5.677-2.636V13.648z"/>
	<path fill="#3C5896" d="M154.396,9.369h-0.054c0.216-1.104,0.296-2.341,0.296-3.175c-1.479-0.079-3.337,0.026-4.682,0.19V7.81
		c0.78,0.052,1.695,0.161,2.34,0.269v11.488h2.422v-5.38c0-4.279,1.345-6.351,4.171-5.865l0.107-2.37
		C156.334,5.656,154.961,7.514,154.396,9.369z"/>
	<path fill="#3C5896" d="M165.261,1.189l-2.422,0.673v4.332h-2.742v1.884h2.742v7.694c0,2.879,0.834,4.011,3.578,4.011
		c0.862,0,1.83-0.108,2.584-0.27V17.47c-0.538,0.133-1.212,0.241-1.831,0.241c-1.506,0-1.909-0.593-1.909-2.799V8.078h3.74V6.194
		h-3.74V1.189z"/>
	<path fill="#3C5896" d="M179.871,5.926c-2.288,0-3.931,1.237-4.708,3.095l-0.057-0.028c0.162-0.779,0.215-2.017,0.215-2.798
		c-1.479-0.079-3.336,0.026-4.679,0.19V7.81c0.778,0.052,1.694,0.161,2.34,0.269v11.488h2.421v-6.432
		c0-2.958,1.587-5.191,3.794-5.191c1.776,0,2.286,1.103,2.286,2.985v8.637h2.422v-9.363C183.905,7.836,182.937,5.926,179.871,5.926z
		"/>
	<path fill="#3C5896" d="M193.24,5.952c-3.792,0-5.972,2.987-5.972,6.996c0,4.709,2.205,6.862,6.321,6.862
		c1.669,0,3.229-0.296,4.521-0.835l-0.216-1.964c-1.077,0.511-2.527,0.833-3.899,0.833c-2.854,0-4.335-1.533-4.228-5.112h8.746
		c0.053-0.456,0.08-0.833,0.08-1.156C198.595,8.508,197.008,5.952,193.24,5.952z M189.879,11.012
		c0.268-1.965,1.506-3.284,3.255-3.284c1.885,0,3.039,1.319,2.986,3.284H189.879z"/>
	<path fill="#3C5896" d="M204.916,9.369h-0.053c0.215-1.104,0.295-2.341,0.295-3.175c-1.479-0.079-3.336,0.026-4.681,0.19V7.81
		c0.779,0.052,1.696,0.161,2.341,0.269v11.488h2.422v-5.38c0-4.279,1.347-6.351,4.17-5.865l0.106-2.37
		C206.854,5.656,205.482,7.514,204.916,9.369z"/>
	<path fill="#3C5896" d="M213.931,9.72c0-1.159,0.887-1.911,2.662-1.911c0.89,0,1.857,0.161,2.692,0.43l0.052-2.02
		c-0.807-0.16-1.748-0.269-2.556-0.269c-3.497,0-5.354,1.75-5.354,4.009c0,4.708,6.215,2.88,6.215,5.867
		c0,1.237-1.211,2.044-2.986,2.044c-1.022,0-2.099-0.188-2.932-0.457l-0.082,2.152c0.834,0.162,1.83,0.243,2.826,0.243
		c3.551,0,5.703-1.829,5.703-4.252C220.172,11.063,213.931,12.652,213.931,9.72z"/>
</g>
</svg>
